<svg xmlns="http://www.w3.org/2000/svg" xmlns:xlink="http://www.w3.org/1999/xlink" width="500" zoomAndPan="magnify" viewBox="0 0 375 374.999991" height="500" preserveAspectRatio="xMidYMid meet" version="1.0"><defs><clipPath id="6b511fc456"><path d="M 43.226562 43.226562 L 331.976562 43.226562 L 331.976562 331.976562 L 43.226562 331.976562 Z M 43.226562 43.226562 " clip-rule="nonzero"/></clipPath></defs><g clip-path="url(#6b511fc456)"><path fill="#d6dce1" d="M 187.453125 43.292969 C 267.144531 43.292969 331.75 107.898438 331.75 187.589844 C 331.75 267.285156 267.144531 331.886719 187.453125 331.886719 C 107.761719 331.886719 43.15625 267.285156 43.15625 187.589844 C 43.15625 107.898438 107.761719 43.292969 187.453125 43.292969 Z M 187.453125 100.160156 C 198.390625 100.160156 207.273438 109.027344 207.273438 119.980469 C 207.273438 130.933594 198.40625 139.800781 187.453125 139.800781 C 176.515625 139.800781 167.632812 130.933594 167.632812 119.980469 C 167.632812 109.042969 176.503906 100.160156 187.453125 100.160156 Z M 169.441406 154.628906 L 205.480469 154.628906 L 205.480469 246.292969 L 219.894531 246.292969 L 219.894531 275.007812 L 155.039062 275.007812 L 155.039062 246.292969 L 169.441406 246.292969 L 169.441406 169.675781 L 155.039062 169.675781 L 155.039062 154.628906 Z M 187.453125 57.210938 C 115.457031 57.210938 57.085938 115.566406 57.085938 187.578125 C 57.085938 259.589844 115.441406 317.945312 187.453125 317.945312 C 259.464844 317.945312 317.820312 259.574219 317.820312 187.578125 C 317.820312 115.566406 259.464844 57.210938 187.453125 57.210938 Z M 187.453125 57.210938 " fill-opacity="1" fill-rule="nonzero"/></g></svg>