<svg xmlns="http://www.w3.org/2000/svg" xmlns:xlink="http://www.w3.org/1999/xlink" width="500" zoomAndPan="magnify" viewBox="0 0 375 374.999991" height="500" preserveAspectRatio="xMidYMid meet" version="1.0"><defs><clipPath id="2b65f70212"><path d="M 47 83.8125 L 328 83.8125 L 328 205 L 47 205 Z M 47 83.8125 " clip-rule="nonzero"/></clipPath><clipPath id="eb667a9a95"><path d="M 37.5 106 L 337.5 106 L 337.5 291.5625 L 37.5 291.5625 Z M 37.5 106 " clip-rule="nonzero"/></clipPath></defs><g clip-path="url(#2b65f70212)"><path fill="#d6dce1" d="M 187.566406 204.480469 C 200.0625 203.566406 267.460938 148.097656 327.273438 93.453125 C 321.199219 87.546875 312.925781 83.898438 303.785156 83.898438 L 71.242188 83.898438 C 61.84375 83.898438 53.351562 87.746094 47.230469 93.945312 C 107.210938 148.300781 174.953125 203.597656 187.566406 204.480469 " fill-opacity="1" fill-rule="nonzero"/></g><g clip-path="url(#eb667a9a95)"><path fill="#d6dce1" d="M 275.777344 159.355469 C 204.125 220.003906 192.480469 220.003906 187.507812 220.003906 C 182.542969 220.003906 170.917969 220.003906 99.246094 159.851562 C 74.183594 138.824219 50.34375 117.601562 39.0625 107.460938 C 38.039062 110.675781 37.484375 114.101562 37.484375 117.65625 L 37.484375 257.445312 C 37.484375 276.074219 52.585938 291.175781 71.214844 291.175781 L 303.757812 291.175781 C 322.402344 291.175781 337.515625 276.0625 337.515625 257.417969 L 337.515625 117.632812 C 337.515625 113.820312 336.855469 110.175781 335.6875 106.757812 C 324.3125 117.070312 300.640625 138.308594 275.777344 159.355469 " fill-opacity="1" fill-rule="nonzero"/></g></svg>