<svg xmlns="http://www.w3.org/2000/svg" xmlns:xlink="http://www.w3.org/1999/xlink" width="500" zoomAndPan="magnify" viewBox="0 0 375 374.999991" height="500" preserveAspectRatio="xMidYMid meet" version="1.0"><defs><clipPath id="448afca349"><path d="M 133 37.5 L 241 37.5 L 241 145 L 133 145 Z M 133 37.5 " clip-rule="nonzero"/></clipPath><clipPath id="3d585c748a"><path d="M 48.1875 101 L 148 101 L 148 177 L 48.1875 177 Z M 48.1875 101 " clip-rule="nonzero"/></clipPath><clipPath id="243a7edcd0"><path d="M 48.1875 166 L 327 166 L 327 337.5 L 48.1875 337.5 Z M 48.1875 166 " clip-rule="nonzero"/></clipPath><clipPath id="3d7655b9e9"><path d="M 48.1875 166 L 327 166 L 327 177 L 48.1875 177 Z M 48.1875 166 " clip-rule="nonzero"/></clipPath></defs><rect x="-37.5" width="450" fill="#ffffff" y="-37.499999" height="449.999989" fill-opacity="1"/><rect x="-37.5" width="450" fill="#ffffff" y="-37.499999" height="449.999989" fill-opacity="1"/><path fill="#d6dce1" d="M 187.234375 96.585938 C 186.707031 96.585938 186.183594 96.558594 185.660156 96.507812 C 185.136719 96.457031 184.617188 96.378906 184.101562 96.277344 C 183.585938 96.175781 183.078125 96.046875 182.574219 95.894531 C 182.074219 95.742188 181.578125 95.566406 181.09375 95.363281 C 180.609375 95.164062 180.132812 94.9375 179.667969 94.691406 C 179.207031 94.445312 178.757812 94.175781 178.320312 93.882812 C 177.882812 93.589844 177.460938 93.277344 177.054688 92.945312 C 176.648438 92.609375 176.257812 92.257812 175.886719 91.886719 C 175.515625 91.515625 175.164062 91.125 174.832031 90.71875 C 174.496094 90.3125 174.183594 89.890625 173.894531 89.457031 C 173.601562 89.019531 173.332031 88.570312 173.082031 88.105469 C 172.835938 87.640625 172.609375 87.167969 172.410156 86.683594 C 172.210938 86.195312 172.03125 85.703125 171.878906 85.199219 C 171.726562 84.695312 171.601562 84.1875 171.496094 83.671875 C 171.394531 83.15625 171.316406 82.636719 171.265625 82.113281 C 171.214844 81.59375 171.1875 81.066406 171.1875 80.542969 C 171.1875 80.015625 171.214844 79.492188 171.265625 78.96875 C 171.316406 78.445312 171.394531 77.925781 171.496094 77.414062 C 171.601562 76.898438 171.726562 76.386719 171.878906 75.886719 C 172.03125 75.382812 172.210938 74.886719 172.410156 74.402344 C 172.609375 73.917969 172.835938 73.441406 173.082031 72.980469 C 173.332031 72.515625 173.601562 72.066406 173.894531 71.628906 C 174.183594 71.191406 174.496094 70.769531 174.832031 70.363281 C 175.164062 69.957031 175.515625 69.570312 175.886719 69.199219 C 176.257812 68.824219 176.648438 68.472656 177.054688 68.140625 C 177.460938 67.808594 177.882812 67.496094 178.320312 67.203125 C 178.757812 66.910156 179.207031 66.640625 179.667969 66.394531 C 180.132812 66.144531 180.609375 65.921875 181.09375 65.71875 C 181.578125 65.519531 182.074219 65.34375 182.574219 65.1875 C 183.078125 65.035156 183.585938 64.910156 184.101562 64.808594 C 184.617188 64.703125 185.136719 64.628906 185.660156 64.574219 C 186.183594 64.523438 186.707031 64.5 187.234375 64.5 C 187.757812 64.5 188.28125 64.523438 188.804688 64.574219 C 189.328125 64.628906 189.847656 64.703125 190.363281 64.808594 C 190.878906 64.910156 191.386719 65.035156 191.890625 65.1875 C 192.394531 65.34375 192.886719 65.519531 193.371094 65.71875 C 193.859375 65.921875 194.332031 66.144531 194.796875 66.394531 C 195.257812 66.640625 195.710938 66.910156 196.144531 67.203125 C 196.582031 67.496094 197.003906 67.808594 197.410156 68.140625 C 197.816406 68.472656 198.207031 68.824219 198.578125 69.199219 C 198.949219 69.570312 199.300781 69.957031 199.632812 70.363281 C 199.96875 70.769531 200.28125 71.191406 200.574219 71.628906 C 200.863281 72.066406 201.132812 72.515625 201.382812 72.980469 C 201.628906 73.441406 201.855469 73.917969 202.054688 74.402344 C 202.257812 74.886719 202.433594 75.382812 202.585938 75.886719 C 202.738281 76.386719 202.867188 76.898438 202.96875 77.414062 C 203.070312 77.925781 203.148438 78.445312 203.199219 78.96875 C 203.25 79.492188 203.277344 80.015625 203.277344 80.542969 C 203.277344 80.894531 203.242188 81.242188 203.171875 81.585938 C 203.105469 81.929688 203.003906 82.265625 202.871094 82.589844 C 202.734375 82.914062 202.570312 83.222656 202.375 83.511719 C 202.179688 83.804688 201.957031 84.074219 201.710938 84.324219 C 201.460938 84.570312 201.191406 84.792969 200.898438 84.988281 C 200.609375 85.183594 200.300781 85.347656 199.976562 85.484375 C 199.652344 85.617188 199.316406 85.71875 198.972656 85.789062 C 198.628906 85.855469 198.28125 85.890625 197.929688 85.890625 C 197.578125 85.890625 197.230469 85.855469 196.886719 85.789062 C 196.539062 85.71875 196.207031 85.617188 195.882812 85.484375 C 195.558594 85.347656 195.25 85.183594 194.957031 84.988281 C 194.664062 84.792969 194.394531 84.570312 194.148438 84.324219 C 193.898438 84.074219 193.675781 83.804688 193.480469 83.511719 C 193.285156 83.222656 193.121094 82.914062 192.988281 82.589844 C 192.851562 82.265625 192.75 81.929688 192.683594 81.585938 C 192.613281 81.242188 192.582031 80.894531 192.582031 80.542969 C 192.582031 80.191406 192.546875 79.84375 192.476562 79.5 C 192.410156 79.15625 192.308594 78.820312 192.171875 78.496094 C 192.039062 78.171875 191.875 77.863281 191.679688 77.570312 C 191.484375 77.277344 191.261719 77.007812 191.015625 76.761719 C 190.765625 76.511719 190.496094 76.289062 190.203125 76.09375 C 189.910156 75.902344 189.605469 75.734375 189.277344 75.601562 C 188.953125 75.46875 188.621094 75.367188 188.277344 75.296875 C 187.929688 75.230469 187.582031 75.195312 187.234375 75.195312 C 186.882812 75.195312 186.535156 75.230469 186.1875 75.296875 C 185.84375 75.367188 185.511719 75.46875 185.1875 75.601562 C 184.863281 75.734375 184.554688 75.902344 184.261719 76.09375 C 183.96875 76.289062 183.699219 76.511719 183.449219 76.761719 C 183.203125 77.007812 182.980469 77.277344 182.785156 77.570312 C 182.589844 77.863281 182.425781 78.171875 182.292969 78.496094 C 182.15625 78.820312 182.054688 79.15625 181.988281 79.5 C 181.917969 79.84375 181.882812 80.191406 181.882812 80.542969 C 181.882812 80.894531 181.917969 81.242188 181.988281 81.585938 C 182.054688 81.929688 182.15625 82.265625 182.292969 82.589844 C 182.425781 82.914062 182.589844 83.222656 182.785156 83.511719 C 182.980469 83.804688 183.203125 84.074219 183.449219 84.324219 C 183.699219 84.570312 183.96875 84.792969 184.261719 84.988281 C 184.554688 85.183594 184.863281 85.347656 185.1875 85.484375 C 185.511719 85.617188 185.84375 85.71875 186.1875 85.789062 C 186.535156 85.855469 186.882812 85.890625 187.234375 85.890625 C 187.582031 85.890625 187.929688 85.925781 188.277344 85.992188 C 188.621094 86.0625 188.953125 86.164062 189.277344 86.296875 C 189.605469 86.429688 189.910156 86.597656 190.203125 86.792969 C 190.496094 86.988281 190.765625 87.207031 191.015625 87.457031 C 191.261719 87.703125 191.484375 87.976562 191.679688 88.265625 C 191.875 88.558594 192.039062 88.867188 192.171875 89.191406 C 192.308594 89.515625 192.410156 89.851562 192.476562 90.195312 C 192.546875 90.539062 192.582031 90.886719 192.582031 91.238281 C 192.582031 91.589844 192.546875 91.9375 192.476562 92.28125 C 192.410156 92.625 192.308594 92.960938 192.171875 93.285156 C 192.039062 93.609375 191.875 93.917969 191.679688 94.210938 C 191.484375 94.5 191.261719 94.769531 191.015625 95.019531 C 190.765625 95.269531 190.496094 95.488281 190.203125 95.683594 C 189.910156 95.878906 189.605469 96.042969 189.277344 96.179688 C 188.953125 96.3125 188.621094 96.414062 188.277344 96.484375 C 187.929688 96.550781 187.582031 96.585938 187.234375 96.585938 Z M 187.234375 96.585938 " fill-opacity="1" fill-rule="nonzero"/><path fill="#d6dce1" d="M 187.234375 117.976562 C 186.707031 117.976562 186.183594 117.949219 185.660156 117.898438 C 185.136719 117.847656 184.617188 117.769531 184.105469 117.667969 C 183.589844 117.5625 183.078125 117.433594 182.578125 117.28125 C 182.074219 117.128906 181.582031 116.953125 181.09375 116.75 C 180.609375 116.550781 180.136719 116.324219 179.671875 116.078125 C 179.210938 115.828125 178.761719 115.558594 178.324219 115.269531 C 177.886719 114.976562 177.464844 114.664062 177.058594 114.332031 C 176.652344 113.996094 176.265625 113.644531 175.894531 113.273438 C 175.523438 112.902344 175.167969 112.511719 174.835938 112.105469 C 174.503906 111.699219 174.191406 111.28125 173.898438 110.84375 C 173.605469 110.40625 173.335938 109.957031 173.089844 109.492188 C 172.839844 109.03125 172.617188 108.554688 172.414062 108.070312 C 172.214844 107.585938 172.035156 107.089844 171.882812 106.589844 C 171.730469 106.085938 171.601562 105.578125 171.5 105.0625 C 171.398438 104.546875 171.320312 104.027344 171.269531 103.503906 C 171.214844 102.984375 171.191406 102.460938 171.1875 101.933594 C 171.1875 101.582031 171.222656 101.234375 171.292969 100.890625 C 171.359375 100.546875 171.460938 100.210938 171.597656 99.886719 C 171.730469 99.5625 171.894531 99.253906 172.089844 98.960938 C 172.285156 98.671875 172.507812 98.402344 172.753906 98.152344 C 173.003906 97.902344 173.273438 97.683594 173.566406 97.488281 C 173.859375 97.292969 174.164062 97.128906 174.492188 96.992188 C 174.816406 96.859375 175.148438 96.757812 175.492188 96.6875 C 175.835938 96.621094 176.1875 96.585938 176.535156 96.585938 C 176.886719 96.585938 177.234375 96.621094 177.582031 96.6875 C 177.925781 96.757812 178.257812 96.859375 178.582031 96.992188 C 178.90625 97.128906 179.214844 97.292969 179.507812 97.488281 C 179.800781 97.683594 180.070312 97.902344 180.316406 98.152344 C 180.566406 98.402344 180.789062 98.671875 180.984375 98.960938 C 181.179688 99.253906 181.34375 99.5625 181.476562 99.886719 C 181.613281 100.210938 181.714844 100.546875 181.78125 100.890625 C 181.851562 101.234375 181.882812 101.582031 181.882812 101.933594 C 181.882812 102.285156 181.917969 102.632812 181.988281 102.976562 C 182.054688 103.320312 182.15625 103.65625 182.292969 103.980469 C 182.425781 104.304688 182.589844 104.613281 182.785156 104.90625 C 182.980469 105.195312 183.203125 105.46875 183.449219 105.714844 C 183.699219 105.964844 183.96875 106.183594 184.261719 106.378906 C 184.554688 106.574219 184.863281 106.738281 185.1875 106.875 C 185.511719 107.007812 185.84375 107.109375 186.1875 107.179688 C 186.535156 107.246094 186.882812 107.28125 187.234375 107.28125 C 187.582031 107.28125 187.929688 107.246094 188.277344 107.179688 C 188.621094 107.109375 188.953125 107.007812 189.277344 106.875 C 189.605469 106.738281 189.910156 106.574219 190.203125 106.378906 C 190.496094 106.183594 190.765625 105.964844 191.015625 105.714844 C 191.261719 105.46875 191.484375 105.195312 191.679688 104.90625 C 191.875 104.613281 192.039062 104.304688 192.171875 103.980469 C 192.308594 103.65625 192.410156 103.320312 192.476562 102.976562 C 192.546875 102.632812 192.582031 102.285156 192.582031 101.933594 C 192.582031 101.582031 192.546875 101.234375 192.476562 100.890625 C 192.410156 100.546875 192.308594 100.210938 192.171875 99.886719 C 192.039062 99.5625 191.875 99.253906 191.679688 98.960938 C 191.484375 98.671875 191.261719 98.402344 191.015625 98.152344 C 190.765625 97.902344 190.496094 97.683594 190.203125 97.488281 C 189.910156 97.292969 189.605469 97.128906 189.277344 96.992188 C 188.953125 96.859375 188.621094 96.757812 188.277344 96.6875 C 187.929688 96.621094 187.582031 96.585938 187.234375 96.585938 C 186.882812 96.585938 186.535156 96.550781 186.1875 96.484375 C 185.84375 96.414062 185.511719 96.3125 185.1875 96.179688 C 184.863281 96.042969 184.554688 95.878906 184.261719 95.683594 C 183.96875 95.488281 183.699219 95.269531 183.449219 95.019531 C 183.203125 94.769531 182.980469 94.5 182.785156 94.210938 C 182.589844 93.917969 182.425781 93.609375 182.292969 93.285156 C 182.15625 92.960938 182.054688 92.625 181.988281 92.28125 C 181.917969 91.9375 181.882812 91.589844 181.882812 91.238281 C 181.882812 90.886719 181.917969 90.539062 181.988281 90.195312 C 182.054688 89.851562 182.15625 89.515625 182.292969 89.191406 C 182.425781 88.867188 182.589844 88.558594 182.785156 88.265625 C 182.980469 87.976562 183.203125 87.703125 183.449219 87.457031 C 183.699219 87.207031 183.96875 86.988281 184.261719 86.792969 C 184.554688 86.597656 184.863281 86.429688 185.1875 86.296875 C 185.511719 86.164062 185.84375 86.0625 186.1875 85.992188 C 186.535156 85.925781 186.882812 85.890625 187.234375 85.890625 C 187.757812 85.890625 188.28125 85.914062 188.804688 85.96875 C 189.328125 86.019531 189.847656 86.097656 190.363281 86.199219 C 190.878906 86.300781 191.386719 86.429688 191.890625 86.582031 C 192.394531 86.734375 192.886719 86.910156 193.371094 87.113281 C 193.859375 87.3125 194.332031 87.535156 194.796875 87.785156 C 195.257812 88.03125 195.710938 88.300781 196.144531 88.59375 C 196.582031 88.886719 197.003906 89.199219 197.410156 89.53125 C 197.816406 89.863281 198.207031 90.21875 198.578125 90.589844 C 198.949219 90.960938 199.300781 91.347656 199.632812 91.753906 C 199.96875 92.160156 200.28125 92.582031 200.574219 93.019531 C 200.863281 93.457031 201.132812 93.90625 201.382812 94.371094 C 201.628906 94.835938 201.855469 95.308594 202.054688 95.792969 C 202.257812 96.28125 202.433594 96.773438 202.585938 97.277344 C 202.738281 97.78125 202.867188 98.289062 202.96875 98.804688 C 203.070312 99.320312 203.148438 99.839844 203.199219 100.359375 C 203.25 100.882812 203.277344 101.410156 203.277344 101.933594 C 203.277344 102.460938 203.25 102.984375 203.199219 103.507812 C 203.148438 104.027344 203.070312 104.546875 202.96875 105.0625 C 202.867188 105.578125 202.738281 106.089844 202.585938 106.589844 C 202.433594 107.09375 202.257812 107.589844 202.054688 108.074219 C 201.855469 108.558594 201.628906 109.035156 201.382812 109.496094 C 201.132812 109.960938 200.863281 110.410156 200.574219 110.847656 C 200.28125 111.285156 199.96875 111.707031 199.632812 112.113281 C 199.300781 112.519531 198.949219 112.90625 198.578125 113.277344 C 198.207031 113.648438 197.816406 114.003906 197.410156 114.335938 C 197.003906 114.667969 196.582031 114.980469 196.144531 115.273438 C 195.710938 115.566406 195.257812 115.835938 194.796875 116.082031 C 194.332031 116.332031 193.859375 116.554688 193.371094 116.757812 C 192.886719 116.957031 192.394531 117.132812 191.890625 117.285156 C 191.386719 117.4375 190.878906 117.566406 190.363281 117.667969 C 189.847656 117.773438 189.328125 117.847656 188.804688 117.898438 C 188.28125 117.953125 187.757812 117.976562 187.234375 117.976562 Z M 187.234375 117.976562 " fill-opacity="1" fill-rule="nonzero"/><path fill="#d6dce1" d="M 187.234375 75.195312 C 186.882812 75.195312 186.535156 75.160156 186.1875 75.089844 C 185.84375 75.023438 185.511719 74.921875 185.1875 74.789062 C 184.863281 74.652344 184.554688 74.488281 184.261719 74.292969 C 183.96875 74.097656 183.699219 73.875 183.449219 73.628906 C 183.203125 73.378906 182.980469 73.109375 182.785156 72.816406 C 182.589844 72.527344 182.425781 72.21875 182.292969 71.894531 C 182.15625 71.570312 182.054688 71.234375 181.988281 70.890625 C 181.917969 70.546875 181.882812 70.199219 181.882812 69.847656 L 181.882812 64.5 C 181.882812 64.148438 181.917969 63.800781 181.988281 63.457031 C 182.054688 63.109375 182.15625 62.777344 182.292969 62.453125 C 182.425781 62.128906 182.589844 61.820312 182.785156 61.527344 C 182.980469 61.234375 183.203125 60.964844 183.449219 60.71875 C 183.699219 60.46875 183.96875 60.246094 184.261719 60.050781 C 184.554688 59.855469 184.863281 59.691406 185.1875 59.558594 C 185.511719 59.421875 185.84375 59.320312 186.1875 59.253906 C 186.535156 59.183594 186.882812 59.152344 187.234375 59.152344 C 187.582031 59.152344 187.929688 59.183594 188.277344 59.253906 C 188.621094 59.320312 188.953125 59.421875 189.277344 59.558594 C 189.605469 59.691406 189.910156 59.855469 190.203125 60.050781 C 190.496094 60.246094 190.765625 60.46875 191.015625 60.71875 C 191.261719 60.964844 191.484375 61.234375 191.679688 61.527344 C 191.875 61.820312 192.039062 62.128906 192.171875 62.453125 C 192.308594 62.777344 192.410156 63.109375 192.476562 63.457031 C 192.546875 63.800781 192.582031 64.148438 192.582031 64.5 L 192.582031 69.847656 C 192.582031 70.199219 192.546875 70.546875 192.476562 70.890625 C 192.410156 71.234375 192.308594 71.570312 192.171875 71.894531 C 192.039062 72.21875 191.875 72.527344 191.679688 72.816406 C 191.484375 73.109375 191.261719 73.378906 191.015625 73.628906 C 190.765625 73.875 190.496094 74.097656 190.203125 74.292969 C 189.910156 74.488281 189.605469 74.652344 189.277344 74.789062 C 188.953125 74.921875 188.621094 75.023438 188.277344 75.089844 C 187.929688 75.160156 187.582031 75.195312 187.234375 75.195312 Z M 187.234375 75.195312 " fill-opacity="1" fill-rule="nonzero"/><path fill="#d6dce1" d="M 187.234375 123.324219 C 186.882812 123.324219 186.535156 123.292969 186.1875 123.222656 C 185.84375 123.152344 185.511719 123.050781 185.1875 122.917969 C 184.863281 122.785156 184.554688 122.617188 184.261719 122.425781 C 183.96875 122.230469 183.699219 122.007812 183.449219 121.757812 C 183.203125 121.511719 182.980469 121.242188 182.785156 120.949219 C 182.589844 120.65625 182.425781 120.347656 182.292969 120.023438 C 182.15625 119.699219 182.054688 119.363281 181.988281 119.019531 C 181.917969 118.675781 181.882812 118.328125 181.882812 117.976562 L 181.882812 112.628906 C 181.882812 112.277344 181.917969 111.929688 181.988281 111.585938 C 182.054688 111.242188 182.15625 110.90625 182.292969 110.582031 C 182.425781 110.257812 182.589844 109.949219 182.785156 109.660156 C 182.980469 109.367188 183.203125 109.097656 183.449219 108.847656 C 183.699219 108.601562 183.96875 108.378906 184.261719 108.183594 C 184.554688 107.988281 184.863281 107.824219 185.1875 107.6875 C 185.511719 107.554688 185.84375 107.453125 186.1875 107.382812 C 186.535156 107.316406 186.882812 107.28125 187.234375 107.28125 C 187.582031 107.28125 187.929688 107.316406 188.277344 107.382812 C 188.621094 107.453125 188.953125 107.554688 189.277344 107.6875 C 189.605469 107.824219 189.910156 107.988281 190.203125 108.183594 C 190.496094 108.378906 190.765625 108.601562 191.015625 108.847656 C 191.261719 109.097656 191.484375 109.367188 191.679688 109.660156 C 191.875 109.949219 192.039062 110.257812 192.171875 110.582031 C 192.308594 110.90625 192.410156 111.242188 192.476562 111.585938 C 192.546875 111.929688 192.582031 112.277344 192.582031 112.628906 L 192.582031 117.976562 C 192.582031 118.328125 192.546875 118.675781 192.476562 119.019531 C 192.410156 119.363281 192.308594 119.699219 192.171875 120.023438 C 192.039062 120.347656 191.875 120.65625 191.679688 120.949219 C 191.484375 121.242188 191.261719 121.511719 191.015625 121.757812 C 190.765625 122.007812 190.496094 122.230469 190.203125 122.425781 C 189.910156 122.617188 189.605469 122.785156 189.277344 122.917969 C 188.953125 123.050781 188.621094 123.152344 188.277344 123.222656 C 187.929688 123.292969 187.582031 123.324219 187.234375 123.324219 Z M 187.234375 123.324219 " fill-opacity="1" fill-rule="nonzero"/><g clip-path="url(#448afca349)"><path fill="#d6dce1" d="M 187.234375 144.71875 C 185.480469 144.71875 183.734375 144.632812 181.992188 144.460938 C 180.246094 144.289062 178.515625 144.03125 176.800781 143.6875 C 175.082031 143.347656 173.382812 142.921875 171.707031 142.414062 C 170.03125 141.90625 168.386719 141.316406 166.765625 140.644531 C 165.148438 139.976562 163.566406 139.226562 162.023438 138.402344 C 160.476562 137.578125 158.976562 136.675781 157.519531 135.703125 C 156.066406 134.730469 154.660156 133.6875 153.304688 132.578125 C 151.953125 131.464844 150.65625 130.292969 149.417969 129.054688 C 148.179688 127.816406 147.003906 126.519531 145.894531 125.164062 C 144.78125 123.8125 143.738281 122.40625 142.765625 120.949219 C 141.792969 119.492188 140.894531 117.992188 140.070312 116.449219 C 139.242188 114.902344 138.496094 113.320312 137.824219 111.703125 C 137.152344 110.085938 136.566406 108.4375 136.054688 106.761719 C 135.546875 105.085938 135.121094 103.390625 134.78125 101.671875 C 134.441406 99.953125 134.183594 98.222656 134.011719 96.480469 C 133.839844 94.738281 133.753906 92.988281 133.753906 91.238281 C 133.753906 89.488281 133.839844 87.738281 134.011719 85.996094 C 134.183594 84.253906 134.441406 82.523438 134.78125 80.804688 C 135.121094 79.085938 135.546875 77.390625 136.054688 75.714844 C 136.566406 74.039062 137.152344 72.390625 137.824219 70.773438 C 138.496094 69.15625 139.242188 67.574219 140.070312 66.027344 C 140.894531 64.484375 141.792969 62.984375 142.765625 61.527344 C 143.738281 60.070312 144.78125 58.664062 145.894531 57.3125 C 147.003906 55.957031 148.179688 54.660156 149.417969 53.421875 C 150.65625 52.183594 151.953125 51.007812 153.304688 49.898438 C 154.660156 48.789062 156.066406 47.746094 157.519531 46.773438 C 158.976562 45.800781 160.476562 44.898438 162.023438 44.074219 C 163.566406 43.25 165.148438 42.5 166.765625 41.828125 C 168.386719 41.160156 170.03125 40.570312 171.707031 40.0625 C 173.382812 39.554688 175.082031 39.128906 176.800781 38.785156 C 178.515625 38.445312 180.246094 38.1875 181.992188 38.015625 C 183.734375 37.84375 185.480469 37.757812 187.234375 37.757812 C 188.984375 37.757812 190.730469 37.84375 192.472656 38.015625 C 194.21875 38.1875 195.949219 38.445312 197.664062 38.785156 C 199.382812 39.128906 201.082031 39.554688 202.757812 40.0625 C 204.433594 40.570312 206.078125 41.160156 207.699219 41.828125 C 209.316406 42.5 210.898438 43.25 212.441406 44.074219 C 213.988281 44.898438 215.488281 45.800781 216.945312 46.773438 C 218.398438 47.746094 219.804688 48.789062 221.160156 49.898438 C 222.511719 51.007812 223.808594 52.183594 225.046875 53.421875 C 226.285156 54.660156 227.460938 55.957031 228.574219 57.3125 C 229.683594 58.664062 230.726562 60.070312 231.699219 61.527344 C 232.671875 62.984375 233.570312 64.484375 234.398438 66.027344 C 235.222656 67.574219 235.96875 69.15625 236.640625 70.773438 C 237.3125 72.390625 237.898438 74.039062 238.410156 75.714844 C 238.917969 77.390625 239.34375 79.085938 239.683594 80.804688 C 240.027344 82.523438 240.28125 84.253906 240.453125 85.996094 C 240.625 87.738281 240.710938 89.488281 240.710938 91.238281 C 240.710938 92.988281 240.621094 94.734375 240.449219 96.476562 C 240.273438 98.21875 240.015625 99.949219 239.671875 101.667969 C 239.332031 103.382812 238.90625 105.082031 238.394531 106.753906 C 237.886719 108.429688 237.296875 110.078125 236.625 111.695312 C 235.953125 113.3125 235.203125 114.890625 234.378906 116.4375 C 233.554688 117.980469 232.652344 119.480469 231.679688 120.933594 C 230.707031 122.390625 229.664062 123.792969 228.554688 125.148438 C 227.441406 126.5 226.269531 127.796875 225.03125 129.035156 C 223.792969 130.273438 222.496094 131.449219 221.144531 132.558594 C 219.789062 133.671875 218.386719 134.710938 216.929688 135.683594 C 215.472656 136.660156 213.972656 137.558594 212.429688 138.382812 C 210.886719 139.210938 209.304688 139.957031 207.6875 140.628906 C 206.070312 141.300781 204.425781 141.890625 202.75 142.402344 C 201.074219 142.910156 199.378906 143.335938 197.660156 143.679688 C 195.945312 144.023438 194.214844 144.28125 192.472656 144.453125 C 190.730469 144.628906 188.984375 144.714844 187.234375 144.71875 Z M 187.234375 48.453125 C 185.832031 48.453125 184.433594 48.523438 183.039062 48.660156 C 181.644531 48.796875 180.261719 49.003906 178.886719 49.277344 C 177.511719 49.550781 176.152344 49.890625 174.8125 50.296875 C 173.472656 50.703125 172.15625 51.175781 170.859375 51.710938 C 169.566406 52.246094 168.300781 52.847656 167.066406 53.507812 C 165.828125 54.167969 164.628906 54.886719 163.464844 55.664062 C 162.296875 56.445312 161.175781 57.277344 160.089844 58.167969 C 159.007812 59.054688 157.972656 59.996094 156.980469 60.984375 C 155.988281 61.976562 155.050781 63.011719 154.160156 64.097656 C 153.273438 65.179688 152.4375 66.304688 151.660156 67.46875 C 150.882812 68.632812 150.160156 69.835938 149.5 71.070312 C 148.839844 72.304688 148.242188 73.570312 147.707031 74.867188 C 147.171875 76.160156 146.699219 77.476562 146.292969 78.820312 C 145.886719 80.160156 145.542969 81.515625 145.273438 82.890625 C 145 84.265625 144.792969 85.648438 144.65625 87.042969 C 144.519531 88.4375 144.449219 89.835938 144.449219 91.238281 C 144.449219 92.640625 144.519531 94.035156 144.65625 95.429688 C 144.792969 96.824219 145 98.210938 145.273438 99.585938 C 145.542969 100.957031 145.886719 102.316406 146.292969 103.65625 C 146.699219 105 147.171875 106.316406 147.707031 107.609375 C 148.242188 108.90625 148.839844 110.171875 149.5 111.40625 C 150.160156 112.640625 150.882812 113.84375 151.660156 115.007812 C 152.4375 116.171875 153.273438 117.296875 154.160156 118.378906 C 155.050781 119.460938 155.988281 120.5 156.980469 121.488281 C 157.972656 122.480469 159.007812 123.421875 160.089844 124.308594 C 161.175781 125.199219 162.296875 126.03125 163.464844 126.8125 C 164.628906 127.589844 165.828125 128.308594 167.066406 128.96875 C 168.300781 129.628906 169.566406 130.226562 170.859375 130.765625 C 172.15625 131.300781 173.472656 131.773438 174.8125 132.179688 C 176.152344 132.585938 177.511719 132.925781 178.886719 133.199219 C 180.261719 133.472656 181.644531 133.679688 183.039062 133.816406 C 184.433594 133.953125 185.832031 134.019531 187.234375 134.019531 C 188.632812 134.019531 190.03125 133.953125 191.425781 133.816406 C 192.820312 133.679688 194.203125 133.472656 195.578125 133.199219 C 196.953125 132.925781 198.3125 132.585938 199.652344 132.179688 C 200.992188 131.773438 202.308594 131.300781 203.605469 130.765625 C 204.898438 130.226562 206.164062 129.628906 207.402344 128.96875 C 208.636719 128.308594 209.835938 127.589844 211 126.8125 C 212.167969 126.03125 213.289062 125.199219 214.375 124.308594 C 215.457031 123.421875 216.492188 122.480469 217.484375 121.488281 C 218.476562 120.5 219.414062 119.460938 220.304688 118.378906 C 221.191406 117.296875 222.027344 116.171875 222.804688 115.007812 C 223.582031 113.84375 224.304688 112.640625 224.964844 111.40625 C 225.625 110.171875 226.222656 108.90625 226.757812 107.609375 C 227.296875 106.316406 227.765625 105 228.171875 103.65625 C 228.582031 102.316406 228.921875 100.957031 229.195312 99.585938 C 229.46875 98.210938 229.671875 96.824219 229.808594 95.429688 C 229.945312 94.035156 230.015625 92.640625 230.015625 91.238281 C 230.015625 89.835938 229.945312 88.441406 229.804688 87.046875 C 229.667969 85.652344 229.460938 84.269531 229.183594 82.894531 C 228.910156 81.519531 228.570312 80.164062 228.164062 78.824219 C 227.753906 77.484375 227.28125 76.167969 226.746094 74.875 C 226.210938 73.578125 225.609375 72.316406 224.949219 71.078125 C 224.289062 69.84375 223.570312 68.644531 222.789062 67.480469 C 222.011719 66.316406 221.179688 65.191406 220.289062 64.109375 C 219.402344 63.027344 218.460938 61.992188 217.46875 61 C 216.480469 60.007812 215.445312 59.070312 214.359375 58.179688 C 213.277344 57.292969 212.15625 56.457031 210.988281 55.679688 C 209.824219 54.902344 208.625 54.183594 207.390625 53.519531 C 206.15625 52.859375 204.890625 52.261719 203.597656 51.726562 C 202.304688 51.1875 200.988281 50.714844 199.644531 50.308594 C 198.304688 49.902344 196.949219 49.558594 195.574219 49.285156 C 194.203125 49.011719 192.820312 48.804688 191.425781 48.664062 C 190.03125 48.527344 188.632812 48.457031 187.234375 48.453125 Z M 187.234375 48.453125 " fill-opacity="1" fill-rule="nonzero"/></g><path fill="#d6dce1" d="M 256.753906 144.71875 L 117.710938 144.71875 C 117.359375 144.71875 117.011719 144.683594 116.667969 144.613281 C 116.324219 144.546875 115.988281 144.445312 115.664062 144.308594 C 115.339844 144.175781 115.03125 144.011719 114.738281 143.816406 C 114.445312 143.621094 114.175781 143.398438 113.929688 143.152344 C 113.679688 142.902344 113.457031 142.632812 113.261719 142.339844 C 113.066406 142.046875 112.902344 141.738281 112.769531 141.414062 C 112.636719 141.089844 112.535156 140.757812 112.464844 140.414062 C 112.394531 140.066406 112.363281 139.71875 112.363281 139.367188 C 112.363281 139.019531 112.394531 138.671875 112.464844 138.324219 C 112.535156 137.980469 112.636719 137.648438 112.769531 137.324219 C 112.902344 136.996094 113.066406 136.691406 113.261719 136.398438 C 113.457031 136.105469 113.679688 135.835938 113.929688 135.585938 C 114.175781 135.339844 114.445312 135.117188 114.738281 134.921875 C 115.03125 134.726562 115.339844 134.5625 115.664062 134.429688 C 115.988281 134.292969 116.324219 134.191406 116.667969 134.125 C 117.011719 134.054688 117.359375 134.019531 117.710938 134.019531 L 256.753906 134.019531 C 257.105469 134.019531 257.453125 134.054688 257.796875 134.125 C 258.144531 134.191406 258.476562 134.292969 258.800781 134.429688 C 259.125 134.5625 259.433594 134.726562 259.726562 134.921875 C 260.019531 135.117188 260.289062 135.339844 260.535156 135.585938 C 260.785156 135.835938 261.007812 136.105469 261.203125 136.398438 C 261.398438 136.691406 261.5625 136.996094 261.695312 137.324219 C 261.832031 137.648438 261.933594 137.980469 262 138.324219 C 262.070312 138.671875 262.101562 139.019531 262.101562 139.367188 C 262.101562 139.71875 262.070312 140.066406 262 140.414062 C 261.933594 140.757812 261.832031 141.089844 261.695312 141.414062 C 261.5625 141.738281 261.398438 142.046875 261.203125 142.339844 C 261.007812 142.632812 260.785156 142.902344 260.535156 143.152344 C 260.289062 143.398438 260.019531 143.621094 259.726562 143.816406 C 259.433594 144.011719 259.125 144.175781 258.800781 144.308594 C 258.476562 144.445312 258.144531 144.546875 257.796875 144.613281 C 257.453125 144.683594 257.105469 144.71875 256.753906 144.71875 Z M 256.753906 144.71875 " fill-opacity="1" fill-rule="nonzero"/><g clip-path="url(#3d585c748a)"><path fill="#d6dce1" d="M 53.53125 176.804688 C 53.304688 176.804688 53.078125 176.789062 52.851562 176.761719 C 52.628906 176.730469 52.40625 176.6875 52.183594 176.632812 C 51.964844 176.574219 51.75 176.503906 51.539062 176.417969 C 51.328125 176.332031 51.125 176.234375 50.925781 176.125 C 50.730469 176.015625 50.539062 175.890625 50.355469 175.757812 C 50.175781 175.621094 50 175.476562 49.835938 175.320312 C 49.671875 175.164062 49.519531 174.996094 49.378906 174.820312 C 49.234375 174.644531 49.101562 174.457031 48.984375 174.265625 C 48.863281 174.074219 48.757812 173.871094 48.664062 173.667969 C 48.570312 173.460938 48.492188 173.246094 48.425781 173.03125 C 48.355469 172.8125 48.304688 172.59375 48.265625 172.371094 C 48.226562 172.148438 48.203125 171.921875 48.191406 171.695312 C 48.183594 171.46875 48.1875 171.242188 48.203125 171.015625 C 48.222656 170.789062 48.257812 170.566406 48.304688 170.34375 C 48.351562 170.121094 48.414062 169.902344 48.488281 169.691406 C 48.5625 169.476562 48.648438 169.265625 48.75 169.0625 L 80.839844 104.890625 C 81.0625 104.445312 81.339844 104.039062 81.675781 103.671875 C 82.011719 103.308594 82.386719 102.992188 82.8125 102.730469 C 83.234375 102.472656 83.683594 102.273438 84.160156 102.136719 C 84.640625 102 85.125 101.933594 85.621094 101.933594 L 141.882812 101.933594 C 142.234375 101.933594 142.582031 101.96875 142.925781 102.035156 C 143.269531 102.105469 143.605469 102.207031 143.929688 102.339844 C 144.253906 102.476562 144.5625 102.640625 144.855469 102.835938 C 145.144531 103.03125 145.414062 103.25 145.664062 103.5 C 145.914062 103.75 146.132812 104.019531 146.328125 104.308594 C 146.523438 104.601562 146.6875 104.910156 146.824219 105.234375 C 146.957031 105.558594 147.058594 105.894531 147.128906 106.238281 C 147.195312 106.582031 147.230469 106.929688 147.230469 107.28125 C 147.230469 107.632812 147.195312 107.980469 147.128906 108.324219 C 147.058594 108.667969 146.957031 109.003906 146.824219 109.328125 C 146.6875 109.652344 146.523438 109.960938 146.328125 110.253906 C 146.132812 110.542969 145.914062 110.816406 145.664062 111.0625 C 145.414062 111.3125 145.144531 111.53125 144.855469 111.726562 C 144.5625 111.921875 144.253906 112.089844 143.929688 112.222656 C 143.605469 112.355469 143.269531 112.457031 142.925781 112.527344 C 142.582031 112.59375 142.234375 112.628906 141.882812 112.628906 L 88.929688 112.628906 L 58.320312 173.847656 C 58.097656 174.292969 57.816406 174.699219 57.480469 175.066406 C 57.148438 175.433594 56.769531 175.746094 56.34375 176.007812 C 55.921875 176.269531 55.472656 176.464844 54.992188 176.601562 C 54.515625 176.738281 54.027344 176.804688 53.53125 176.804688 Z M 53.53125 176.804688 " fill-opacity="1" fill-rule="nonzero"/></g><path fill="#d6dce1" d="M 320.933594 176.804688 C 320.4375 176.804688 319.949219 176.738281 319.472656 176.601562 C 318.992188 176.46875 318.542969 176.269531 318.121094 176.007812 C 317.695312 175.746094 317.316406 175.433594 316.980469 175.066406 C 316.648438 174.699219 316.367188 174.292969 316.144531 173.847656 L 285.535156 112.628906 L 232.585938 112.628906 C 232.234375 112.628906 231.886719 112.59375 231.542969 112.527344 C 231.199219 112.457031 230.863281 112.355469 230.539062 112.222656 C 230.214844 112.089844 229.90625 111.921875 229.613281 111.726562 C 229.320312 111.53125 229.050781 111.3125 228.804688 111.0625 C 228.554688 110.816406 228.332031 110.542969 228.140625 110.253906 C 227.945312 109.960938 227.777344 109.652344 227.644531 109.328125 C 227.511719 109.003906 227.410156 108.667969 227.339844 108.324219 C 227.273438 107.980469 227.238281 107.632812 227.238281 107.28125 C 227.238281 106.929688 227.273438 106.582031 227.339844 106.238281 C 227.410156 105.894531 227.511719 105.558594 227.644531 105.234375 C 227.777344 104.910156 227.945312 104.601562 228.140625 104.308594 C 228.332031 104.019531 228.554688 103.75 228.804688 103.5 C 229.050781 103.25 229.320312 103.03125 229.613281 102.835938 C 229.90625 102.640625 230.214844 102.476562 230.539062 102.339844 C 230.863281 102.207031 231.199219 102.105469 231.542969 102.035156 C 231.886719 101.96875 232.234375 101.933594 232.585938 101.933594 L 288.84375 101.933594 C 289.339844 101.933594 289.824219 102 290.304688 102.136719 C 290.78125 102.273438 291.230469 102.472656 291.652344 102.730469 C 292.078125 102.992188 292.457031 103.308594 292.789062 103.671875 C 293.125 104.039062 293.402344 104.445312 293.625 104.890625 L 325.714844 169.0625 C 325.816406 169.265625 325.902344 169.476562 325.976562 169.691406 C 326.054688 169.902344 326.113281 170.121094 326.160156 170.34375 C 326.207031 170.566406 326.242188 170.789062 326.261719 171.015625 C 326.277344 171.242188 326.28125 171.46875 326.273438 171.695312 C 326.261719 171.921875 326.238281 172.148438 326.199219 172.371094 C 326.160156 172.59375 326.109375 172.8125 326.042969 173.03125 C 325.972656 173.246094 325.894531 173.460938 325.800781 173.667969 C 325.707031 173.871094 325.601562 174.074219 325.480469 174.265625 C 325.363281 174.457031 325.230469 174.644531 325.089844 174.820312 C 324.945312 174.996094 324.792969 175.164062 324.628906 175.320312 C 324.464844 175.476562 324.292969 175.621094 324.109375 175.757812 C 323.925781 175.890625 323.734375 176.015625 323.539062 176.125 C 323.339844 176.234375 323.136719 176.332031 322.925781 176.417969 C 322.714844 176.503906 322.5 176.574219 322.28125 176.632812 C 322.058594 176.6875 321.839844 176.730469 321.613281 176.761719 C 321.386719 176.789062 321.160156 176.804688 320.933594 176.804688 Z M 320.933594 176.804688 " fill-opacity="1" fill-rule="nonzero"/><g clip-path="url(#243a7edcd0)"><path fill="#d6dce1" d="M 320.929688 337.242188 L 53.535156 337.242188 C 53.183594 337.242188 52.835938 337.207031 52.492188 337.136719 C 52.148438 337.070312 51.8125 336.96875 51.488281 336.832031 C 51.164062 336.699219 50.855469 336.535156 50.5625 336.339844 C 50.273438 336.144531 50.003906 335.921875 49.753906 335.675781 C 49.503906 335.425781 49.285156 335.15625 49.089844 334.863281 C 48.894531 334.570312 48.730469 334.265625 48.59375 333.941406 C 48.460938 333.613281 48.359375 333.28125 48.289062 332.9375 C 48.222656 332.59375 48.1875 332.242188 48.1875 331.894531 L 48.1875 171.457031 C 48.1875 171.105469 48.222656 170.757812 48.289062 170.414062 C 48.359375 170.070312 48.460938 169.734375 48.59375 169.410156 C 48.730469 169.085938 48.894531 168.777344 49.089844 168.484375 C 49.285156 168.191406 49.503906 167.921875 49.753906 167.675781 C 50.003906 167.425781 50.273438 167.203125 50.5625 167.007812 C 50.855469 166.816406 51.164062 166.648438 51.488281 166.515625 C 51.8125 166.382812 52.148438 166.28125 52.492188 166.210938 C 52.835938 166.144531 53.183594 166.109375 53.535156 166.109375 C 53.886719 166.109375 54.234375 166.144531 54.578125 166.210938 C 54.921875 166.28125 55.257812 166.382812 55.582031 166.515625 C 55.90625 166.648438 56.214844 166.816406 56.507812 167.007812 C 56.796875 167.203125 57.070312 167.425781 57.316406 167.675781 C 57.566406 167.921875 57.785156 168.191406 57.980469 168.484375 C 58.175781 168.777344 58.34375 169.085938 58.476562 169.410156 C 58.609375 169.734375 58.710938 170.070312 58.78125 170.414062 C 58.847656 170.757812 58.882812 171.105469 58.882812 171.457031 L 58.882812 326.546875 L 315.582031 326.546875 L 315.582031 171.457031 C 315.582031 171.105469 315.617188 170.757812 315.683594 170.414062 C 315.753906 170.070312 315.855469 169.734375 315.988281 169.410156 C 316.125 169.085938 316.289062 168.777344 316.484375 168.484375 C 316.679688 168.191406 316.898438 167.921875 317.148438 167.675781 C 317.398438 167.425781 317.667969 167.203125 317.957031 167.007812 C 318.25 166.816406 318.558594 166.648438 318.882812 166.515625 C 319.207031 166.382812 319.542969 166.28125 319.886719 166.210938 C 320.230469 166.144531 320.578125 166.109375 320.929688 166.109375 C 321.28125 166.109375 321.628906 166.144531 321.972656 166.210938 C 322.316406 166.28125 322.652344 166.382812 322.976562 166.515625 C 323.300781 166.648438 323.609375 166.816406 323.902344 167.007812 C 324.191406 167.203125 324.464844 167.425781 324.710938 167.675781 C 324.960938 167.921875 325.179688 168.191406 325.375 168.484375 C 325.570312 168.777344 325.734375 169.085938 325.871094 169.410156 C 326.003906 169.734375 326.105469 170.070312 326.175781 170.414062 C 326.242188 170.757812 326.277344 171.105469 326.277344 171.457031 L 326.277344 331.894531 C 326.277344 332.242188 326.242188 332.59375 326.175781 332.9375 C 326.105469 333.28125 326.003906 333.613281 325.871094 333.941406 C 325.734375 334.265625 325.570312 334.570312 325.375 334.863281 C 325.179688 335.15625 324.960938 335.425781 324.710938 335.675781 C 324.464844 335.921875 324.191406 336.144531 323.902344 336.339844 C 323.609375 336.535156 323.300781 336.699219 322.976562 336.832031 C 322.652344 336.96875 322.316406 337.070312 321.972656 337.136719 C 321.628906 337.207031 321.28125 337.242188 320.929688 337.242188 Z M 320.929688 337.242188 " fill-opacity="1" fill-rule="nonzero"/></g><g clip-path="url(#3d7655b9e9)"><path fill="#d6dce1" d="M 320.929688 176.804688 L 53.535156 176.804688 C 53.183594 176.804688 52.835938 176.769531 52.492188 176.703125 C 52.148438 176.632812 51.8125 176.53125 51.488281 176.398438 C 51.164062 176.261719 50.855469 176.097656 50.5625 175.902344 C 50.273438 175.707031 50.003906 175.484375 49.753906 175.238281 C 49.503906 174.988281 49.285156 174.71875 49.089844 174.425781 C 48.894531 174.136719 48.730469 173.828125 48.59375 173.503906 C 48.460938 173.179688 48.359375 172.84375 48.289062 172.5 C 48.222656 172.15625 48.1875 171.808594 48.1875 171.457031 C 48.1875 171.105469 48.222656 170.757812 48.289062 170.414062 C 48.359375 170.070312 48.460938 169.734375 48.59375 169.410156 C 48.730469 169.085938 48.894531 168.777344 49.089844 168.484375 C 49.285156 168.191406 49.503906 167.921875 49.753906 167.675781 C 50.003906 167.425781 50.273438 167.203125 50.5625 167.007812 C 50.855469 166.816406 51.164062 166.648438 51.488281 166.515625 C 51.8125 166.382812 52.148438 166.28125 52.492188 166.210938 C 52.835938 166.144531 53.183594 166.109375 53.535156 166.109375 L 320.929688 166.109375 C 321.28125 166.109375 321.628906 166.144531 321.972656 166.210938 C 322.316406 166.28125 322.652344 166.382812 322.976562 166.515625 C 323.300781 166.648438 323.609375 166.816406 323.902344 167.007812 C 324.191406 167.203125 324.464844 167.425781 324.710938 167.675781 C 324.960938 167.921875 325.179688 168.191406 325.375 168.484375 C 325.570312 168.777344 325.734375 169.085938 325.871094 169.410156 C 326.003906 169.734375 326.105469 170.070312 326.175781 170.414062 C 326.242188 170.757812 326.277344 171.105469 326.277344 171.457031 C 326.277344 171.808594 326.242188 172.15625 326.175781 172.5 C 326.105469 172.84375 326.003906 173.179688 325.871094 173.503906 C 325.734375 173.828125 325.570312 174.136719 325.375 174.425781 C 325.179688 174.71875 324.960938 174.988281 324.710938 175.238281 C 324.464844 175.484375 324.191406 175.707031 323.902344 175.902344 C 323.609375 176.097656 323.300781 176.261719 322.976562 176.398438 C 322.652344 176.53125 322.316406 176.632812 321.972656 176.703125 C 321.628906 176.769531 321.28125 176.804688 320.929688 176.804688 Z M 320.929688 176.804688 " fill-opacity="1" fill-rule="nonzero"/></g><path fill="#d6dce1" d="M 187.234375 302.53125 C 186.523438 302.535156 185.839844 302.398438 185.1875 302.125 C 184.53125 301.855469 183.953125 301.46875 183.453125 300.964844 L 138.074219 255.585938 C 137.335938 254.84375 136.640625 254.0625 135.980469 253.25 C 135.324219 252.4375 134.703125 251.59375 134.128906 250.71875 C 133.550781 249.847656 133.019531 248.949219 132.53125 248.023438 C 132.042969 247.097656 131.601562 246.148438 131.207031 245.179688 C 130.808594 244.210938 130.460938 243.226562 130.164062 242.222656 C 129.863281 241.21875 129.613281 240.203125 129.414062 239.175781 C 129.214844 238.152344 129.066406 237.117188 128.964844 236.074219 C 128.867188 235.03125 128.820312 233.988281 128.824219 232.941406 C 128.828125 231.894531 128.882812 230.851562 128.988281 229.808594 C 129.09375 228.769531 129.25 227.734375 129.453125 226.710938 C 129.660156 225.683594 129.917969 224.671875 130.222656 223.667969 C 130.53125 222.667969 130.882812 221.683594 131.285156 220.71875 C 131.6875 219.753906 132.136719 218.808594 132.628906 217.886719 C 133.125 216.964844 133.664062 216.066406 134.246094 215.199219 C 134.828125 214.328125 135.449219 213.488281 136.117188 212.679688 C 136.78125 211.871094 137.480469 211.097656 138.222656 210.355469 C 138.960938 209.617188 139.734375 208.914062 140.542969 208.25 C 141.355469 207.585938 142.191406 206.964844 143.0625 206.382812 C 143.933594 205.800781 144.828125 205.261719 145.75 204.765625 C 146.671875 204.273438 147.617188 203.824219 148.582031 203.421875 C 149.550781 203.019531 150.535156 202.667969 151.535156 202.359375 C 152.535156 202.054688 153.546875 201.796875 154.574219 201.589844 C 155.601562 201.386719 156.632812 201.230469 157.675781 201.125 C 158.714844 201.019531 159.761719 200.964844 160.804688 200.960938 C 161.851562 200.957031 162.898438 201.003906 163.9375 201.101562 C 164.980469 201.203125 166.015625 201.351562 167.042969 201.550781 C 168.070312 201.75 169.085938 202 170.085938 202.300781 C 171.089844 202.601562 172.078125 202.949219 173.046875 203.34375 C 174.015625 203.738281 174.960938 204.179688 175.886719 204.667969 C 176.8125 205.15625 177.710938 205.691406 178.585938 206.265625 C 179.457031 206.84375 180.300781 207.460938 181.113281 208.121094 C 181.929688 208.777344 182.707031 209.476562 183.453125 210.210938 L 187.234375 213.992188 L 191.011719 210.210938 C 191.757812 209.46875 192.535156 208.765625 193.347656 208.101562 C 194.160156 207.433594 195.003906 206.808594 195.878906 206.226562 C 196.753906 205.644531 197.652344 205.105469 198.578125 204.609375 C 199.507812 204.117188 200.457031 203.667969 201.425781 203.265625 C 202.398438 202.863281 203.386719 202.511719 204.390625 202.207031 C 205.394531 201.902344 206.414062 201.648438 207.445312 201.445312 C 208.476562 201.238281 209.511719 201.085938 210.558594 200.980469 C 211.605469 200.878906 212.652344 200.828125 213.703125 200.828125 C 214.753906 200.828125 215.800781 200.878906 216.847656 200.980469 C 217.894531 201.085938 218.929688 201.238281 219.960938 201.445312 C 220.992188 201.648438 222.007812 201.902344 223.015625 202.207031 C 224.019531 202.511719 225.007812 202.863281 225.980469 203.265625 C 226.949219 203.667969 227.898438 204.117188 228.828125 204.609375 C 229.753906 205.105469 230.652344 205.644531 231.527344 206.226562 C 232.402344 206.808594 233.246094 207.433594 234.058594 208.101562 C 234.871094 208.765625 235.648438 209.46875 236.390625 210.210938 C 237.132812 210.953125 237.839844 211.734375 238.503906 212.546875 C 239.167969 213.359375 239.792969 214.203125 240.375 215.078125 C 240.957031 215.949219 241.496094 216.851562 241.992188 217.777344 C 242.488281 218.703125 242.933594 219.652344 243.335938 220.625 C 243.738281 221.59375 244.089844 222.582031 244.394531 223.589844 C 244.699219 224.59375 244.953125 225.609375 245.160156 226.640625 C 245.363281 227.671875 245.515625 228.710938 245.621094 229.753906 C 245.722656 230.800781 245.773438 231.847656 245.773438 232.898438 C 245.773438 233.949219 245.722656 234.996094 245.621094 236.042969 C 245.515625 237.089844 245.363281 238.125 245.160156 239.15625 C 244.953125 240.1875 244.699219 241.203125 244.394531 242.210938 C 244.089844 243.214844 243.738281 244.203125 243.335938 245.175781 C 242.933594 246.144531 242.488281 247.09375 241.992188 248.019531 C 241.496094 248.949219 240.957031 249.847656 240.375 250.722656 C 239.792969 251.597656 239.167969 252.441406 238.503906 253.253906 C 237.839844 254.066406 237.132812 254.84375 236.390625 255.585938 L 191.011719 300.96875 C 190.511719 301.46875 189.933594 301.855469 189.277344 302.128906 C 188.625 302.398438 187.941406 302.535156 187.234375 302.53125 Z M 160.765625 211.519531 C 159.710938 211.519531 158.667969 211.597656 157.625 211.75 C 156.585938 211.902344 155.5625 212.132812 154.554688 212.4375 C 153.546875 212.742188 152.566406 213.117188 151.617188 213.566406 C 150.664062 214.015625 149.753906 214.535156 148.875 215.117188 C 148 215.703125 147.175781 216.347656 146.394531 217.050781 C 145.613281 217.757812 144.890625 218.519531 144.222656 219.332031 C 143.554688 220.144531 142.949219 221 142.410156 221.902344 C 141.867188 222.804688 141.398438 223.742188 140.992188 224.714844 C 140.589844 225.6875 140.261719 226.683594 140.007812 227.703125 C 139.75 228.722656 139.570312 229.757812 139.46875 230.804688 C 139.363281 231.851562 139.339844 232.902344 139.390625 233.953125 C 139.441406 235.003906 139.570312 236.042969 139.777344 237.074219 C 139.980469 238.105469 140.261719 239.117188 140.617188 240.109375 C 140.972656 241.097656 141.398438 242.058594 141.894531 242.984375 C 142.390625 243.914062 142.949219 244.800781 143.578125 245.644531 C 144.207031 246.488281 144.890625 247.285156 145.636719 248.027344 L 187.234375 289.625 L 228.828125 248.027344 C 229.324219 247.53125 229.792969 247.011719 230.238281 246.46875 C 230.679688 245.929688 231.097656 245.367188 231.484375 244.78125 C 231.875 244.199219 232.230469 243.601562 232.5625 242.980469 C 232.890625 242.363281 233.191406 241.730469 233.457031 241.085938 C 233.722656 240.4375 233.960938 239.777344 234.164062 239.109375 C 234.367188 238.4375 234.535156 237.757812 234.671875 237.074219 C 234.808594 236.386719 234.910156 235.695312 234.980469 234.996094 C 235.046875 234.300781 235.082031 233.601562 235.082031 232.902344 C 235.082031 232.199219 235.046875 231.503906 234.980469 230.804688 C 234.910156 230.109375 234.808594 229.417969 234.671875 228.730469 C 234.535156 228.042969 234.367188 227.363281 234.164062 226.695312 C 233.960938 226.023438 233.722656 225.363281 233.457031 224.71875 C 233.191406 224.070312 232.890625 223.4375 232.5625 222.820312 C 232.230469 222.203125 231.875 221.601562 231.484375 221.019531 C 231.097656 220.4375 230.679688 219.875 230.238281 219.332031 C 229.792969 218.789062 229.324219 218.269531 228.828125 217.773438 C 228.335938 217.28125 227.816406 216.8125 227.273438 216.367188 C 226.730469 215.925781 226.167969 215.507812 225.585938 215.121094 C 225.003906 214.730469 224.402344 214.375 223.785156 214.042969 C 223.167969 213.714844 222.535156 213.414062 221.886719 213.148438 C 221.238281 212.878906 220.582031 212.644531 219.910156 212.441406 C 219.242188 212.238281 218.5625 212.070312 217.875 211.933594 C 217.1875 211.796875 216.496094 211.695312 215.800781 211.625 C 215.101562 211.558594 214.402344 211.523438 213.703125 211.523438 C 213.003906 211.523438 212.304688 211.558594 211.605469 211.625 C 210.910156 211.695312 210.21875 211.796875 209.53125 211.933594 C 208.84375 212.070312 208.164062 212.238281 207.496094 212.441406 C 206.824219 212.644531 206.167969 212.878906 205.519531 213.148438 C 204.871094 213.414062 204.238281 213.714844 203.621094 214.042969 C 203.003906 214.375 202.402344 214.730469 201.820312 215.121094 C 201.238281 215.507812 200.675781 215.925781 200.132812 216.367188 C 199.589844 216.8125 199.070312 217.28125 198.574219 217.773438 L 191.011719 225.335938 C 190.765625 225.585938 190.496094 225.808594 190.203125 226.003906 C 189.910156 226.195312 189.601562 226.363281 189.277344 226.496094 C 188.953125 226.628906 188.621094 226.730469 188.277344 226.800781 C 187.929688 226.867188 187.582031 226.902344 187.234375 226.902344 C 186.882812 226.902344 186.535156 226.867188 186.191406 226.800781 C 185.84375 226.730469 185.511719 226.628906 185.1875 226.496094 C 184.863281 226.363281 184.554688 226.195312 184.261719 226.003906 C 183.96875 225.808594 183.699219 225.585938 183.453125 225.335938 L 175.890625 217.773438 C 174.894531 216.78125 173.816406 215.894531 172.648438 215.117188 C 171.480469 214.335938 170.246094 213.675781 168.949219 213.140625 C 167.652344 212.605469 166.316406 212.199219 164.9375 211.925781 C 163.558594 211.65625 162.167969 211.519531 160.765625 211.519531 Z M 160.765625 211.519531 " fill-opacity="1" fill-rule="nonzero"/></svg>