<svg xmlns="http://www.w3.org/2000/svg" xmlns:xlink="http://www.w3.org/1999/xlink" width="500" zoomAndPan="magnify" viewBox="0 0 375 374.999991" height="500" preserveAspectRatio="xMidYMid meet" version="1.0"><path fill="#d6dce1" d="M 331.0625 307.851562 L 252.316406 229.105469 C 285.292969 184.824219 281.824219 121.78125 241.648438 81.609375 C 197.527344 37.484375 125.734375 37.484375 81.609375 81.609375 C 37.484375 125.734375 37.484375 197.527344 81.609375 241.648438 C 121.78125 281.824219 184.824219 285.292969 229.105469 252.316406 L 307.851562 331.0625 C 314.261719 337.472656 324.652344 337.472656 331.0625 331.0625 C 337.472656 324.652344 337.472656 314.261719 331.0625 307.851562 Z M 97.082031 226.175781 C 61.492188 190.585938 61.492188 132.671875 97.082031 97.082031 C 132.671875 61.492188 190.585938 61.492188 226.175781 97.082031 C 261.769531 132.671875 261.769531 190.585938 226.175781 226.175781 C 190.585938 261.769531 132.671875 261.765625 97.082031 226.175781 Z M 97.082031 226.175781 " fill-opacity="1" fill-rule="nonzero"/><path fill="#d6dce1" d="M 91.28125 169.273438 C 87.578125 169.273438 84.578125 166.273438 84.578125 162.570312 C 84.578125 120.578125 118.738281 86.417969 160.726562 86.417969 C 164.429688 86.417969 167.429688 89.421875 167.429688 93.125 C 167.429688 96.828125 164.429688 99.828125 160.726562 99.828125 C 126.132812 99.828125 97.988281 127.972656 97.988281 162.570312 C 97.988281 166.273438 94.984375 169.273438 91.28125 169.273438 Z M 91.28125 169.273438 " fill-opacity="1" fill-rule="nonzero"/></svg>