<svg xmlns="http://www.w3.org/2000/svg" xmlns:xlink="http://www.w3.org/1999/xlink" width="500" zoomAndPan="magnify" viewBox="0 0 375 374.999991" height="500" preserveAspectRatio="xMidYMid meet" version="1.0"><defs><clipPath id="3624479e51"><path d="M 37.5 83 L 337.5 83 L 337.5 292.023438 L 37.5 292.023438 Z M 37.5 83 " clip-rule="nonzero"/></clipPath></defs><g clip-path="url(#3624479e51)"><path fill="#d6dce1" d="M 127.570312 83.144531 C 127.300781 83.175781 126.457031 83.265625 125.691406 83.347656 C 120.652344 83.890625 117.308594 84.820312 110.445312 87.585938 C 90.464844 95.640625 71.714844 100.164062 56.675781 100.558594 L 53.507812 100.640625 L 53.507812 268.210938 L 53.820312 268.210938 C 54.375 268.210938 59.050781 267.65625 62.140625 267.222656 C 78.890625 264.886719 96.640625 260.464844 110.445312 255.191406 C 116.648438 252.820312 120.09375 251.953125 125.0625 251.511719 C 140.492188 250.132812 162.578125 256.066406 182.855469 267.035156 C 184.050781 267.679688 185.070312 268.210938 185.117188 268.210938 C 185.164062 268.210938 185.203125 230.503906 185.203125 184.414062 L 185.203125 100.621094 L 183.289062 99.449219 C 169.128906 90.8125 153.648438 85.148438 139.402344 83.398438 C 137.625 83.179688 128.902344 82.992188 127.570312 83.144531 M 240.191406 83.144531 C 239.921875 83.171875 239.015625 83.261719 238.171875 83.34375 C 224.449219 84.644531 207.160156 90.984375 192.410156 100.125 L 191.753906 100.53125 L 191.75 184.382812 C 191.746094 230.5 191.792969 268.214844 191.851562 268.1875 C 191.910156 268.160156 192.980469 267.585938 194.230469 266.90625 C 212.710938 256.871094 232.617188 251.132812 247.988281 251.410156 C 255.09375 251.535156 258.40625 252.195312 265.738281 254.945312 C 279.277344 260.023438 293.625 263.8125 308.820312 266.316406 C 314.074219 267.183594 321.820312 268.210938 323.089844 268.210938 L 323.441406 268.210938 L 323.441406 100.644531 L 320.132812 100.554688 C 305.222656 100.164062 285.707031 95.460938 266.503906 87.625 C 259.964844 84.957031 257.132812 84.148438 251.746094 83.394531 C 250.230469 83.183594 241.53125 82.992188 240.191406 83.144531 M 46.269531 110.773438 C 45.695312 110.832031 43.488281 110.921875 41.363281 110.980469 L 37.5 111.085938 L 37.5 292.015625 L 38.097656 292.015625 C 38.984375 292.015625 45.714844 291.234375 49.609375 290.679688 C 68.496094 287.992188 86.398438 283.679688 102.582031 277.921875 C 111.035156 274.914062 115.160156 274.078125 122.777344 273.832031 C 139.449219 273.292969 162.511719 279.496094 183.964844 290.292969 C 185.847656 291.242188 187.429688 292.015625 187.476562 292.015625 C 187.527344 292.015625 189.523438 291.050781 191.917969 289.867188 C 216.605469 277.6875 241.003906 272.007812 258.707031 274.324219 C 263.328125 274.929688 265.921875 275.609375 272.484375 277.945312 C 288.386719 283.609375 306.425781 287.964844 324.902344 290.609375 C 329.566406 291.273438 335.910156 292.015625 336.960938 292.015625 L 337.5 292.015625 L 337.5 111.042969 L 334.960938 111.035156 C 332.664062 111.035156 331.433594 110.972656 327.582031 110.679688 L 326.363281 110.585938 L 326.363281 273.777344 L 325.839844 273.777344 C 323.785156 273.777344 312.65625 272.242188 305.628906 270.992188 C 291.070312 268.398438 278.507812 265.101562 265.527344 260.476562 C 261.46875 259.027344 259.46875 258.453125 256.660156 257.917969 C 239.582031 254.667969 215.339844 259.867188 191.054688 271.992188 L 187.511719 273.761719 L 183.609375 271.828125 C 160.421875 260.363281 137.378906 255.105469 120.816406 257.503906 C 116.765625 258.089844 114.609375 258.65625 109.609375 260.4375 C 91.410156 266.9375 66.574219 272.464844 49.914062 273.722656 L 48.636719 273.820312 L 48.636719 110.625 L 47.976562 110.644531 C 47.613281 110.660156 46.84375 110.714844 46.269531 110.773438 " fill-opacity="1" fill-rule="evenodd"/></g></svg>