<svg xmlns="http://www.w3.org/2000/svg" xmlns:xlink="http://www.w3.org/1999/xlink" width="500" zoomAndPan="magnify" viewBox="0 0 375 374.999991" height="500" preserveAspectRatio="xMidYMid meet" version="1.0"><path fill="#d6dce1" d="M 332.523438 179.789062 L 198.695312 45.957031 C 195.707031 42.972656 191.730469 41.976562 187.75 41.976562 C 183.769531 41.480469 179.789062 42.972656 176.804688 45.957031 L 42.972656 179.789062 C 37.5 185.261719 37.5 193.71875 42.972656 198.695312 L 45.957031 201.679688 C 51.429688 207.152344 59.886719 207.152344 64.863281 201.679688 L 74.316406 192.226562 L 74.316406 333.519531 L 154.414062 333.519531 L 154.414062 243.46875 L 221.082031 243.46875 L 221.082031 333.519531 L 301.179688 333.519531 L 301.179688 193.222656 L 310.136719 202.175781 C 315.609375 207.648438 324.066406 207.648438 329.042969 202.175781 L 332.027344 199.191406 C 337.5 193.71875 337.5 184.765625 332.523438 179.789062 Z M 332.523438 179.789062 " fill-opacity="1" fill-rule="nonzero"/></svg>