<svg xmlns="http://www.w3.org/2000/svg" xmlns:xlink="http://www.w3.org/1999/xlink" width="500" zoomAndPan="magnify" viewBox="0 0 375 374.999991" height="500" preserveAspectRatio="xMidYMid meet" version="1.0"><defs><clipPath id="d1ff59d256"><path d="M 37.5 42.136719 L 337.5 42.136719 L 337.5 274 L 37.5 274 Z M 37.5 42.136719 " clip-rule="nonzero"/></clipPath></defs><g clip-path="url(#d1ff59d256)"><path fill="#d6dce1" d="M 334.203125 90.222656 C 331.824219 87.339844 328.28125 85.671875 324.539062 85.671875 L 110.722656 85.671875 L 100.433594 51.101562 C 98.851562 45.785156 93.96875 42.140625 88.421875 42.140625 L 50.167969 42.140625 C 43.246094 42.140625 37.632812 47.753906 37.632812 54.675781 C 37.632812 61.597656 43.246094 67.207031 50.167969 67.207031 L 79.074219 67.207031 L 125.910156 224.523438 C 120.835938 233.832031 116.019531 247.15625 121.480469 258.320312 C 126.3125 268.203125 137.238281 273.21875 153.941406 273.21875 C 154.246094 273.21875 154.546875 273.203125 154.847656 273.175781 C 155.933594 273.074219 263.898438 263.175781 301.121094 265.285156 C 306.550781 265.574219 311.25 261.421875 311.558594 255.964844 C 311.867188 250.511719 307.691406 245.835938 302.234375 245.535156 C 264.441406 243.402344 162.386719 252.617188 153.503906 253.429688 C 144.34375 253.367188 140.101562 251.355469 139.253906 249.628906 C 138.3125 247.707031 138.980469 244.078125 140.570312 239.96875 C 140.835938 239.957031 141.101562 239.953125 141.371094 239.917969 L 304.9375 220.132812 C 310.34375 219.476562 314.707031 215.40625 315.738281 210.0625 L 336.847656 100.578125 C 337.550781 96.902344 336.582031 93.109375 334.203125 90.222656 Z M 243.414062 151.015625 L 191.972656 151.015625 L 191.972656 110.734375 L 243.414062 110.734375 Z M 133.714844 162.886719 L 180.101562 162.886719 L 180.101562 209.988281 L 148.859375 213.769531 Z M 191.972656 162.886719 L 243.414062 162.886719 L 243.414062 202.328125 L 191.972656 208.550781 Z M 301.601562 151.015625 L 255.289062 151.015625 L 255.289062 110.734375 L 309.367188 110.734375 Z M 180.101562 110.734375 L 180.101562 151.015625 L 130.179688 151.015625 L 118.1875 110.734375 Z M 255.289062 200.890625 L 255.289062 162.886719 L 299.308594 162.886719 L 292.859375 196.34375 Z M 255.289062 200.890625 " fill-opacity="1" fill-rule="nonzero"/></g><path fill="#d6dce1" d="M 163.609375 307.914062 C 163.609375 308.734375 163.570312 309.554688 163.488281 310.371094 C 163.410156 311.1875 163.289062 311.996094 163.128906 312.800781 C 162.96875 313.605469 162.769531 314.398438 162.53125 315.183594 C 162.292969 315.96875 162.019531 316.738281 161.703125 317.496094 C 161.390625 318.253906 161.039062 318.996094 160.652344 319.71875 C 160.265625 320.441406 159.847656 321.144531 159.390625 321.828125 C 158.933594 322.507812 158.445312 323.167969 157.925781 323.800781 C 157.40625 324.433594 156.855469 325.042969 156.277344 325.621094 C 155.695312 326.199219 155.089844 326.75 154.457031 327.269531 C 153.820312 327.792969 153.164062 328.28125 152.480469 328.734375 C 151.800781 329.191406 151.097656 329.613281 150.375 330 C 149.652344 330.386719 148.910156 330.734375 148.152344 331.050781 C 147.394531 331.363281 146.625 331.640625 145.839844 331.875 C 145.054688 332.113281 144.261719 332.3125 143.457031 332.472656 C 142.652344 332.632812 141.839844 332.753906 141.023438 332.835938 C 140.210938 332.914062 139.390625 332.953125 138.570312 332.953125 C 137.75 332.953125 136.933594 332.914062 136.117188 332.835938 C 135.300781 332.753906 134.492188 332.632812 133.6875 332.472656 C 132.882812 332.3125 132.085938 332.113281 131.300781 331.875 C 130.519531 331.640625 129.746094 331.363281 128.988281 331.050781 C 128.230469 330.734375 127.492188 330.386719 126.765625 330 C 126.042969 329.613281 125.339844 329.191406 124.660156 328.734375 C 123.976562 328.28125 123.320312 327.792969 122.6875 327.269531 C 122.050781 326.75 121.445312 326.199219 120.867188 325.621094 C 120.285156 325.042969 119.734375 324.433594 119.214844 323.800781 C 118.695312 323.167969 118.207031 322.507812 117.75 321.828125 C 117.296875 321.144531 116.875 320.441406 116.488281 319.71875 C 116.101562 318.996094 115.75 318.253906 115.4375 317.496094 C 115.125 316.738281 114.847656 315.96875 114.609375 315.183594 C 114.371094 314.398438 114.171875 313.605469 114.011719 312.800781 C 113.851562 311.996094 113.734375 311.1875 113.652344 310.371094 C 113.570312 309.554688 113.53125 308.734375 113.53125 307.914062 C 113.53125 307.09375 113.570312 306.277344 113.652344 305.460938 C 113.734375 304.644531 113.851562 303.835938 114.011719 303.03125 C 114.171875 302.226562 114.371094 301.433594 114.609375 300.648438 C 114.847656 299.863281 115.125 299.089844 115.4375 298.332031 C 115.75 297.574219 116.101562 296.835938 116.488281 296.113281 C 116.875 295.390625 117.296875 294.6875 117.75 294.003906 C 118.207031 293.324219 118.695312 292.664062 119.214844 292.03125 C 119.734375 291.398438 120.285156 290.789062 120.867188 290.210938 C 121.445312 289.628906 122.050781 289.082031 122.6875 288.558594 C 123.320312 288.039062 123.976562 287.550781 124.660156 287.097656 C 125.339844 286.640625 126.042969 286.21875 126.765625 285.832031 C 127.492188 285.445312 128.230469 285.097656 128.988281 284.78125 C 129.746094 284.46875 130.519531 284.191406 131.300781 283.953125 C 132.085938 283.714844 132.882812 283.515625 133.6875 283.359375 C 134.492188 283.199219 135.300781 283.078125 136.117188 282.996094 C 136.933594 282.917969 137.75 282.875 138.570312 282.875 C 139.390625 282.875 140.210938 282.917969 141.023438 282.996094 C 141.839844 283.078125 142.652344 283.199219 143.457031 283.359375 C 144.261719 283.515625 145.054688 283.714844 145.839844 283.953125 C 146.625 284.191406 147.394531 284.46875 148.152344 284.78125 C 148.910156 285.097656 149.652344 285.445312 150.375 285.832031 C 151.097656 286.21875 151.800781 286.640625 152.480469 287.097656 C 153.164062 287.550781 153.820312 288.039062 154.457031 288.558594 C 155.089844 289.082031 155.695312 289.628906 156.277344 290.210938 C 156.855469 290.789062 157.40625 291.398438 157.925781 292.03125 C 158.445312 292.664062 158.933594 293.324219 159.390625 294.003906 C 159.847656 294.6875 160.265625 295.390625 160.652344 296.113281 C 161.039062 296.835938 161.390625 297.574219 161.703125 298.332031 C 162.019531 299.089844 162.292969 299.863281 162.53125 300.648438 C 162.769531 301.433594 162.96875 302.226562 163.128906 303.03125 C 163.289062 303.835938 163.410156 304.644531 163.488281 305.460938 C 163.570312 306.277344 163.609375 307.09375 163.609375 307.914062 Z M 163.609375 307.914062 " fill-opacity="1" fill-rule="nonzero"/><path fill="#d6dce1" d="M 306.070312 307.914062 C 306.070312 308.734375 306.03125 309.554688 305.949219 310.371094 C 305.871094 311.1875 305.75 311.996094 305.589844 312.800781 C 305.429688 313.605469 305.230469 314.398438 304.992188 315.183594 C 304.753906 315.96875 304.480469 316.738281 304.164062 317.496094 C 303.851562 318.253906 303.5 318.996094 303.113281 319.71875 C 302.726562 320.441406 302.308594 321.144531 301.851562 321.828125 C 301.394531 322.507812 300.90625 323.167969 300.386719 323.800781 C 299.867188 324.433594 299.316406 325.042969 298.738281 325.621094 C 298.15625 326.199219 297.550781 326.75 296.917969 327.269531 C 296.28125 327.792969 295.625 328.28125 294.941406 328.734375 C 294.261719 329.191406 293.558594 329.613281 292.835938 330 C 292.113281 330.386719 291.371094 330.734375 290.613281 331.050781 C 289.855469 331.363281 289.085938 331.640625 288.300781 331.875 C 287.515625 332.113281 286.722656 332.3125 285.917969 332.472656 C 285.113281 332.632812 284.300781 332.753906 283.488281 332.835938 C 282.671875 332.914062 281.851562 332.953125 281.03125 332.953125 C 280.210938 332.953125 279.394531 332.914062 278.578125 332.835938 C 277.761719 332.753906 276.953125 332.632812 276.148438 332.472656 C 275.34375 332.3125 274.546875 332.113281 273.761719 331.875 C 272.980469 331.640625 272.207031 331.363281 271.449219 331.050781 C 270.691406 330.734375 269.953125 330.386719 269.230469 330 C 268.503906 329.613281 267.804688 329.191406 267.121094 328.734375 C 266.4375 328.28125 265.78125 327.792969 265.148438 327.269531 C 264.511719 326.75 263.90625 326.199219 263.328125 325.621094 C 262.746094 325.042969 262.195312 324.433594 261.675781 323.800781 C 261.15625 323.167969 260.667969 322.507812 260.210938 321.828125 C 259.757812 321.144531 259.335938 320.441406 258.949219 319.71875 C 258.5625 318.996094 258.210938 318.253906 257.898438 317.496094 C 257.585938 316.738281 257.308594 315.96875 257.070312 315.183594 C 256.832031 314.398438 256.632812 313.605469 256.472656 312.800781 C 256.3125 311.996094 256.195312 311.1875 256.113281 310.371094 C 256.03125 309.554688 255.992188 308.734375 255.992188 307.914062 C 255.992188 307.09375 256.03125 306.277344 256.113281 305.460938 C 256.195312 304.644531 256.3125 303.835938 256.472656 303.03125 C 256.632812 302.226562 256.832031 301.433594 257.070312 300.648438 C 257.308594 299.863281 257.585938 299.089844 257.898438 298.332031 C 258.210938 297.574219 258.5625 296.835938 258.949219 296.113281 C 259.335938 295.390625 259.757812 294.6875 260.210938 294.003906 C 260.667969 293.324219 261.15625 292.664062 261.675781 292.03125 C 262.195312 291.398438 262.746094 290.789062 263.328125 290.210938 C 263.90625 289.628906 264.511719 289.082031 265.148438 288.558594 C 265.78125 288.039062 266.4375 287.550781 267.121094 287.097656 C 267.804688 286.640625 268.503906 286.21875 269.230469 285.832031 C 269.953125 285.445312 270.691406 285.097656 271.449219 284.78125 C 272.207031 284.46875 272.980469 284.191406 273.761719 283.953125 C 274.546875 283.714844 275.34375 283.515625 276.148438 283.359375 C 276.953125 283.199219 277.761719 283.078125 278.578125 282.996094 C 279.394531 282.917969 280.210938 282.875 281.03125 282.875 C 281.851562 282.875 282.671875 282.917969 283.488281 282.996094 C 284.300781 283.078125 285.113281 283.199219 285.917969 283.359375 C 286.722656 283.515625 287.515625 283.714844 288.300781 283.953125 C 289.085938 284.191406 289.855469 284.46875 290.613281 284.78125 C 291.371094 285.097656 292.113281 285.445312 292.835938 285.832031 C 293.558594 286.21875 294.261719 286.640625 294.941406 287.097656 C 295.625 287.550781 296.28125 288.039062 296.917969 288.558594 C 297.550781 289.082031 298.15625 289.628906 298.738281 290.210938 C 299.316406 290.789062 299.867188 291.398438 300.386719 292.03125 C 300.90625 292.664062 301.394531 293.324219 301.851562 294.003906 C 302.308594 294.6875 302.726562 295.390625 303.113281 296.113281 C 303.5 296.835938 303.851562 297.574219 304.164062 298.332031 C 304.480469 299.089844 304.753906 299.863281 304.992188 300.648438 C 305.230469 301.433594 305.429688 302.226562 305.589844 303.03125 C 305.75 303.835938 305.871094 304.644531 305.949219 305.460938 C 306.03125 306.277344 306.070312 307.09375 306.070312 307.914062 Z M 306.070312 307.914062 " fill-opacity="1" fill-rule="nonzero"/></svg>